<?xml version="1.0" standalone="no"?><!DOCTYPE svg PUBLIC "-//W3C//DTD SVG 1.1//EN" "http://www.w3.org/Graphics/SVG/1.1/DTD/svg11.dtd"><svg t="1528097868096" class="icon" style="" viewBox="0 0 1024 1024" version="1.1" xmlns="http://www.w3.org/2000/svg" p-id="4680" xmlns:xlink="http://www.w3.org/1999/xlink" width="200" height="200"><defs><style type="text/css"></style></defs><path d="M510.732124 60.898998c-247.520373 0-448.175369 200.649879-448.175369 448.175369 0 247.530606 200.654996 448.195835 448.175369 448.195835 247.540839 0 448.195835-200.665229 448.195835-448.195835C958.927959 261.548878 758.272963 60.898998 510.732124 60.898998zM510.732124 907.466913c-220.016972 0-398.37208-178.36534-398.37208-398.391523 0-220.031299 178.355107-398.386406 398.37208-398.386406 220.046648 0 398.406872 178.355107 398.406872 398.386406C909.138996 729.101573 730.778772 907.466913 510.732124 907.466913zM709.963701 459.290521 560.566112 459.290521 560.566112 309.893956c0-27.508517-22.294772-49.804313-49.799196-49.804313-27.504424 0-49.799196 22.294772-49.799196 49.804313l0 149.396565L311.571155 459.290521c-27.504424 0-49.799196 22.294772-49.799196 49.799196 0 27.499307 22.294772 49.79408 49.799196 49.79408l149.396565 0 0 149.396565c0 27.504424 22.294772 49.804313 49.799196 49.804313 27.504424 0 49.799196-22.299889 49.799196-49.804313L560.566112 558.883797 709.963701 558.883797c27.504424 0 49.799196-22.294772 49.799196-49.79408C759.761873 481.586316 737.467101 459.290521 709.963701 459.290521z" fill="#8FCB38" p-id="4681"></path></svg>