<?xml version="1.0" standalone="no"?><!DOCTYPE svg PUBLIC "-//W3C//DTD SVG 1.1//EN" "http://www.w3.org/Graphics/SVG/1.1/DTD/svg11.dtd"><svg t="1528191780982" class="icon" style="" viewBox="0 0 1024 1024" version="1.1" xmlns="http://www.w3.org/2000/svg" p-id="1049" xmlns:xlink="http://www.w3.org/1999/xlink" width="200" height="200"><defs><style type="text/css"></style></defs><path d="M491.534899 160.466692c-209.403241 0-379.158483 169.755242-379.158483 379.158483 0 209.404264 169.755242 379.158483 379.158483 379.158483 209.404264 0 379.159506-169.755242 379.159506-379.158483C870.694405 330.221934 700.939163 160.466692 491.534899 160.466692zM708.190311 455.485869 480.33379 683.359786c-5.193279 5.193279-11.997242 7.79043-18.801205 7.79043s-13.606903-2.597151-18.801205-7.79043L335.658759 576.287165c-10.386558-10.387581-10.386558-27.213805 0-37.601386 10.386558-10.386558 27.213805-10.386558 37.601386 0l88.272439 88.271416 209.057363-209.072713c10.386558-10.387581 27.213805-10.387581 37.601386 0C718.576869 428.27104 718.576869 445.098287 708.190311 455.485869z" fill="#8fcb38" p-id="1050"></path></svg>