<?xml version="1.0" standalone="no"?><!DOCTYPE svg PUBLIC "-//W3C//DTD SVG 1.1//EN" "http://www.w3.org/Graphics/SVG/1.1/DTD/svg11.dtd"><svg t="1530070799514" class="icon" style="" viewBox="0 0 1024 1024" version="1.1" xmlns="http://www.w3.org/2000/svg" p-id="3880" xmlns:xlink="http://www.w3.org/1999/xlink" width="200" height="200"><defs><style type="text/css"></style></defs><path d="M511.632 35.751c-263.677 0-477.428 213.751-477.428 477.428s213.751 477.428 477.428 477.428 477.428-213.751 477.428-477.428-213.753-477.428-477.428-477.428zM715.378 722.222c0 0.842-0.080 1.664-0.192 2.476v17.12c0 12.313-9.98 22.294-22.293 22.294h-362.522c-11.287 0-20.592-8.398-22.066-19.283-0.268-1.177-0.419-2.395-0.419-3.649v-357.748c0-9.374 7.899-16.973 17.642-16.973h27.33c9.743 0 17.643 7.599 17.643 16.973v318.066h282.267v-316.597c0-10.186 8.582-18.443 19.17-18.443h24.272c10.587 0 19.17 8.256 19.17 18.443v337.321zM436.403 655.734v-248.823c0-11.749 6.21-21.273 13.871-21.273h13.121c7.661 0 13.871 9.523 13.871 21.273v248.823c0 11.748-6.211 21.271-13.871 21.271h-13.121c-7.662 0-13.871-9.523-13.871-21.271zM545.996 655.734v-248.823c0-11.749 6.21-21.273 13.871-21.273h13.121c7.662 0 13.871 9.523 13.871 21.273v248.823c0 11.748-6.211 21.271-13.871 21.271h-13.121c-7.662 0-13.871-9.523-13.871-21.271zM746.67 333.125c0 12.46-10.1 22.56-22.56 22.56h-424.956c-12.46 0-22.56-10.1-22.56-22.56v-17.493c0-12.461 10.1-22.56 22.56-22.56h165.521v-12.415c0-10.167 8.241-18.41 18.41-18.41h57.094c10.166 0 18.41 8.242 18.41 18.41v12.415h165.521c12.46 0 22.56 10.099 22.56 22.56v17.493z" fill="#FB6C6E" p-id="3881"></path></svg>