<?xml version="1.0" standalone="no"?><!DOCTYPE svg PUBLIC "-//W3C//DTD SVG 1.1//EN" "http://www.w3.org/Graphics/SVG/1.1/DTD/svg11.dtd"><svg t="1519717865777" class="icon" style="" viewBox="0 0 1024 1024" version="1.1" xmlns="http://www.w3.org/2000/svg" p-id="2195" xmlns:xlink="http://www.w3.org/1999/xlink" width="200" height="200"><defs><style type="text/css"></style></defs><path d="M793.6 102.4H230.4C174.08 102.4 128 148.48 128 204.8v614.4c0 56.32 46.08 102.4 102.4 102.4h563.2c56.32 0 102.4-46.08 102.4-102.4V204.8c0-56.32-46.08-102.4-102.4-102.4z m51.2 716.8c0 28.16-23.04 51.2-51.2 51.2H230.4c-28.16 0-51.2-23.04-51.2-51.2v-51.2h665.6v51.2z m0-102.4H179.2V204.8c0-28.16 23.04-51.2 51.2-51.2h563.2c28.16 0 51.2 23.04 51.2 51.2v512z m-222.72-273.92l-84.48 102.4V230.4c0-15.36-10.24-25.6-25.6-25.6s-25.6 10.24-25.6 25.6v314.88l-84.48-102.4c-10.24-10.24-25.6-10.24-35.84 0-10.24 10.24-10.24 25.6 0 35.84l125.44 153.6c5.12 5.12 12.8 7.68 20.48 7.68 7.68 0 15.36-2.56 20.48-7.68l125.44-153.6c10.24-10.24 10.24-25.6 0-35.84-10.24-10.24-25.6-10.24-35.84 0z" p-id="2196"></path></svg>