<?xml version="1.0" standalone="no"?><!DOCTYPE svg PUBLIC "-//W3C//DTD SVG 1.1//EN" "http://www.w3.org/Graphics/SVG/1.1/DTD/svg11.dtd"><svg t="1531986200616" class="icon" style="" viewBox="0 0 1044 1024" version="1.1" xmlns="http://www.w3.org/2000/svg" p-id="1616" xmlns:xlink="http://www.w3.org/1999/xlink" width="203.90625" height="200"><defs><style type="text/css"></style></defs><path d="M1043.080745 508.819876c0 279.850932-222.608696 508.819876-502.459627 508.819876-279.850932 0-508.819876-222.608696-508.819876-502.459627 0-108.124224 31.801242-209.888199 95.403727-292.571429l50.881988 38.161491C120.84472 330.732919 95.403727 419.776398 95.403727 508.819876c0 241.689441 203.52795 445.217391 445.217391 438.857143s445.217391-203.52795 438.857143-445.217391c0-57.242236-12.720497-120.84472-38.161491-171.726708l57.242236-25.440994C1030.360248 368.89441 1043.080745 438.857143 1043.080745 508.819876z" p-id="1617"></path><path d="M661.465839 775.950311l-63.602484 0L597.863354 159.006211c0-50.881988-44.521739-95.403727-95.403727-95.403727L400.695652 63.602484c-50.881988 0-95.403727 44.521739-95.403727 95.403727l0 610.583851-63.602484 0L241.689441 159.006211c0-89.043478 69.962733-159.006211 159.006211-159.006211l108.124224 0c89.043478 0 159.006211 69.962733 159.006211 159.006211L667.826087 775.950311z" p-id="1618"></path><path d="M864.993789 705.987578l-63.602484 0L801.391304 356.173913c0-25.440994-19.080745-44.521739-44.521739-44.521739l-95.403727 0 0-63.602484 95.403727 0c63.602484 0 108.124224 50.881988 108.124224 108.124224L864.993789 705.987578z" p-id="1619"></path><path d="M438.857143 203.52795l63.602484 0 0 63.602484-63.602484 0 0-63.602484Z" p-id="1620"></path><path d="M375.254658 330.732919l63.602484 0 0 63.602484-63.602484 0 0-63.602484Z" p-id="1621"></path><path d="M438.857143 457.937888l63.602484 0 0 63.602484-63.602484 0 0-63.602484Z" p-id="1622"></path><path d="M381.614907 578.782609l63.602484 0 0 63.602484-63.602484 0 0-63.602484Z" p-id="1623"></path><path d="M629.664596 394.335404l63.602484 0 0 63.602484-63.602484 0 0-63.602484Z" p-id="1624"></path><path d="M693.267081 521.540373l63.602484 0 0 63.602484-63.602484 0 0-63.602484Z" p-id="1625"></path></svg>