<?xml version="1.0" standalone="no"?><!DOCTYPE svg PUBLIC "-//W3C//DTD SVG 1.1//EN" "http://www.w3.org/Graphics/SVG/1.1/DTD/svg11.dtd"><svg t="1527582035440" class="icon" style="" viewBox="0 0 1024 1024" version="1.1" xmlns="http://www.w3.org/2000/svg" p-id="14421" xmlns:xlink="http://www.w3.org/1999/xlink" width="200" height="200"><defs><style type="text/css"></style></defs><path d="M861.866667 889.6H194.133333c-40.533333 0-72.533333-29.866667-72.533333-68.266667v-78.933333c0-40.533333 32-68.266667 72.533333-68.266667h665.6c40.533333 0 72.533333 29.866667 72.533334 68.266667v78.933333c2.133333 40.533333-32 68.266667-70.4 68.266667z m-81.066667-160c-27.733333 0-51.2 23.466667-51.2 51.2 0 29.866667 23.466667 51.2 51.2 51.2 27.733333 0 51.2-25.6 51.2-53.333333-2.133333-25.6-23.466667-49.066667-51.2-49.066667z m81.066667-108.8H194.133333c-40.533333 0-72.533333-29.866667-72.533333-68.266667v-78.933333c0-40.533333 32-68.266667 72.533333-68.266667h665.6c40.533333 0 72.533333 27.733333 72.533334 68.266667v78.933333c2.133333 38.4-32 68.266667-70.4 68.266667z m-81.066667-160c-29.866667 0-51.2 23.466667-51.2 51.2 0 27.733333 23.466667 51.2 51.2 51.2 29.866667 0 51.2-23.466667 51.2-51.2 2.133333-27.733333-21.333333-51.2-51.2-51.2z m81.066667-108.8H194.133333c-40.533333 0-72.533333-29.866667-72.533333-68.266667V202.666667c0-40.533333 32-68.266667 72.533333-68.266667h665.6c40.533333 0 72.533333 29.866667 72.533334 68.266667v78.933333c2.133333 40.533333-32 70.4-70.4 70.4z m-81.066667-162.133333c-29.866667 0-51.2 23.466667-51.2 51.2 0 29.866667 23.466667 51.2 51.2 51.2 27.733333 0 51.2-23.466667 51.2-51.2 0-27.733333-21.333333-51.2-51.2-51.2z" fill="#00C1DE" p-id="14422"></path></svg>