<?xml version="1.0" standalone="no"?><!DOCTYPE svg PUBLIC "-//W3C//DTD SVG 1.1//EN" "http://www.w3.org/Graphics/SVG/1.1/DTD/svg11.dtd"><svg t="1528283920047" class="icon" style="" viewBox="0 0 1024 1024" version="1.1" xmlns="http://www.w3.org/2000/svg" p-id="1462" xmlns:xlink="http://www.w3.org/1999/xlink" width="200" height="200"><defs><style type="text/css"></style></defs><path d="M694.23669 1024 329.76331 1024C147.915034 1024 0 876.084966 0 694.23669L0 329.76331C0 147.915034 147.915034 0 329.76331 0l364.473379 0C876.084966 0 1024 147.915034 1024 329.76331l0 364.473379C1024 876.084966 876.084966 1024 694.23669 1024zM329.76331 52.082759c-153.105655 0-277.680552 124.574897-277.680552 277.680552l0 364.473379c0 153.105655 124.574897 277.680552 277.680552 277.680552l364.473379 0c153.105655 0 277.680552-124.574897 277.680552-277.680552L971.917241 329.76331c0-153.105655-124.574897-277.680552-277.680552-277.680552L329.76331 52.082759z" fill="#ff9e19" p-id="1463"></path><path d="M777.851586 743.883034l-19.032276 19.067586c-7.485793 7.556414-19.667862 7.556414-27.153655 0l-76.694069-76.976552c-18.46731 10.804966-39.936 17.054897-62.887724 17.054897-67.760552 0-126.375724-57.979586-128.317793-125.704828l-96.962207 0 0-32.203034 100.210759 0c2.718897-11.511172 7.168-22.210207 12.782345-32.203034l-112.957793 0 0-32.203034L504.937931 480.715034c-0.247172 0.247172-0.388414 0.635586-0.600276 0.882759 22.210207-20.374069 51.482483-33.085793 83.93269-33.085793 68.996414 0 128.706207 59.956966 128.706207 129.165241 0 23.834483-6.603034 46.08-18.114207 65.076966l76.270345 76.517517C782.653793 726.863448 785.37269 736.361931 777.851586 743.883034L777.851586 743.883034zM588.270345 487.106207c-47.739586 0-86.439724 38.87669-86.439724 86.792828s42.548966 90.606345 90.253241 90.606345c47.774897 0 86.475034-38.87669 86.475034-86.792828C678.558897 529.796414 636.009931 487.106207 588.270345 487.106207L588.270345 487.106207zM366.839172 351.973517l225.385931 0 0 32.203034-225.385931 0L366.839172 351.973517 366.839172 351.973517zM592.189793 423.830069c-19.173517 5.473103-37.181793 13.523862-53.071448 24.717241l-172.314483 0 0-32.203034 225.385931 0L592.189793 423.830069 592.189793 423.830069 592.189793 423.830069zM624.392828 417.968552 624.392828 319.770483 334.636138 319.770483l0 321.959724 136.297931 0c6.814897 23.975724 18.46731 45.726897 34.003862 64.406069L334.636138 706.136276c-17.796414 0-32.203034-14.441931-32.203034-32.203034L302.433103 287.567448c0-17.796414 14.406621-32.203034 32.203034-32.203034l289.75669 0c17.761103 0 32.203034 14.406621 32.203034 32.203034l0 130.401103c-5.367172-0.459034-10.593103-1.588966-16.101517-1.588966C634.950621 416.344276 629.76 417.474207 624.392828 417.968552L624.392828 417.968552z" fill="#ff9e19" p-id="1464"></path></svg>