<?xml version="1.0" standalone="no"?><!DOCTYPE svg PUBLIC "-//W3C//DTD SVG 1.1//EN" "http://www.w3.org/Graphics/SVG/1.1/DTD/svg11.dtd"><svg t="1519786805118" class="icon" style="" viewBox="0 0 1024 1024" version="1.1" xmlns="http://www.w3.org/2000/svg" p-id="1001" xmlns:xlink="http://www.w3.org/1999/xlink" width="200" height="200"><defs><style type="text/css"></style></defs><path d="M858.576875 446.699375v364.9603125c0 26.1103125-21.395625 47.4834375-47.53875 47.4834375h-599.08875c-26.1525-0.0009375-47.548125-21.3759375-47.548125-47.484375v-376.299375c0-0.6046875 0.165-1.1625 0.18375-1.76625v-45.890625h-0.18375l267.3834375-194.51625c38.750625-38.3990625 101.5790625-38.3990625 140.319375 0l287.0540625 194.5171875v58.9978125h-0.5821875zM204.0903125 800.8953125l153.1396875-161.2059375c9.283125-9.275625 24.3309375-9.275625 33.615 0 9.283125 9.26625 9.283125 24.3046875 0 33.5709375l-131.66625 146.76375h510.7940625l-131.6671875-146.76375c-9.3028125-9.26625-9.3028125-24.3046875 0-33.5709375 9.2821875-9.275625 24.3215625-9.275625 33.6046875 0l147.616875 158.2378125v-336.7565625l-263.9334375 220.96125c-13.411875 13.4146875-21.9384375 23.364375-41.008125 23.364375-19.09875 0-30.571875-9.9478125-44.011875-23.364375l-266.4834375-220.951875v339.7153125zM799.4009375 407.3684375l-269.3896875-172.4596875c-15.504375-15.36375-40.6303125-15.36375-56.1234375 0l-246.765 172.4596875-4.3959375-5.3775 21.2559375 25.4278125h0.30375l259.9115625 221.1346875c8.915625 8.9109375 8.87625 8.9025 17.7703125 0l259.966875-221.1346875 23.383125-26.7421875-5.919375 6.6928125z" fill="#cdcdcd" p-id="1002"></path></svg>