<?xml version="1.0" standalone="no"?><!DOCTYPE svg PUBLIC "-//W3C//DTD SVG 1.1//EN" "http://www.w3.org/Graphics/SVG/1.1/DTD/svg11.dtd"><svg t="1519786793706" class="icon" style="" viewBox="0 0 1024 1024" version="1.1" xmlns="http://www.w3.org/2000/svg" p-id="881" xmlns:xlink="http://www.w3.org/1999/xlink" width="200" height="200"><defs><style type="text/css"></style></defs><path d="M812 214.4h-576c-52.8 0-96 43.2-96 96v384c0 52.8 43.2 96 96 96h576c52.8 0 96-43.2 96-96v-384c0-52.8-43.2-96-96-96z m24 48l-312 240-312-240h624z m-648 432v-384l216 168-213.6 230.4c-2.4-4.8-2.4-9.6-2.4-14.4z m38.4 45.6l216-230.4 81.6 62.4 79.2-62.4 220.8 230.4H226.4z m633.6-45.6c0 4.8 0 9.6-2.4 14.4l-213.6-230.4 216-168v384z" fill="#f4ea2a" p-id="882"></path></svg>