<?xml version="1.0" standalone="no"?><!DOCTYPE svg PUBLIC "-//W3C//DTD SVG 1.1//EN" "http://www.w3.org/Graphics/SVG/1.1/DTD/svg11.dtd"><svg t="1531986291580" class="icon" style="" viewBox="0 0 1131 1024" version="1.1" xmlns="http://www.w3.org/2000/svg" p-id="1997" xmlns:xlink="http://www.w3.org/1999/xlink" width="220.8984375" height="200"><defs><style type="text/css"></style></defs><path d="M401.515789 493.136842H231.747368c-64.673684 0-118.568421-53.894737-118.568421-118.568421V183.242105c0-64.673684 53.894737-118.568421 118.568421-118.568421H404.210526c64.673684 0 118.568421 53.894737 118.568421 118.568421v191.326316c-2.694737 64.673684-56.589474 118.568421-121.263158 118.568421zM231.747368 91.621053c-51.2 0-91.621053 40.421053-91.621052 91.621052v191.326316c0 51.2 40.421053 91.621053 91.621052 91.621053H404.210526c51.2 0 91.621053-40.421053 91.621053-91.621053V183.242105c0-51.2-40.421053-91.621053-91.621053-91.621052H231.747368zM862.315789 493.136842h-172.463157c-64.673684 0-118.568421-53.894737-118.568421-118.568421V183.242105c0-64.673684 53.894737-118.568421 118.568421-118.568421H862.315789c64.673684 0 118.568421 53.894737 118.568422 118.568421v191.326316c-2.694737 64.673684-53.894737 118.568421-118.568422 118.568421zM689.852632 91.621053c-51.2 0-91.621053 40.421053-91.621053 91.621052v191.326316c0 51.2 40.421053 91.621053 91.621053 91.621053H862.315789c51.2 0 91.621053-40.421053 91.621053-91.621053V183.242105c0-51.2-40.421053-91.621053-91.621053-91.621052h-172.463157zM401.515789 975.494737H231.747368c-64.673684 0-118.568421-53.894737-118.568421-118.568421v-191.326316c0-64.673684 53.894737-118.568421 118.568421-118.568421H404.210526c64.673684 0 118.568421 53.894737 118.568421 118.568421v191.326316c-2.694737 67.368421-56.589474 118.568421-121.263158 118.568421zM231.747368 576.673684c-51.2 0-91.621053 40.421053-91.621052 91.621053v191.326316c0 51.2 40.421053 91.621053 91.621052 91.621052H404.210526c51.2 0 91.621053-40.421053 91.621053-91.621052v-191.326316c0-51.2-40.421053-91.621053-91.621053-91.621053H231.747368zM881.178947 975.494737h-210.189473c-53.894737 0-99.705263-45.810526-99.705263-99.705263V646.736842c0-53.894737 45.810526-99.705263 99.705263-99.705263h210.189473c53.894737 0 99.705263 45.810526 99.705264 99.705263v229.052632c0 8.084211-5.389474 13.473684-13.473685 13.473684s-13.473684-5.389474-13.473684-13.473684V646.736842c0-40.421053-32.336842-72.757895-72.757895-72.757895h-210.189473c-40.421053 0-72.757895 32.336842-72.757895 72.757895v229.052632c0 40.421053 32.336842 72.757895 72.757895 72.757894h210.189473c8.084211 0 13.473684 5.389474 13.473685 13.473685s-8.084211 13.473684-13.473685 13.473684z" fill="" p-id="1998"></path></svg>