<?xml version="1.0" standalone="no"?><!DOCTYPE svg PUBLIC "-//W3C//DTD SVG 1.1//EN" "http://www.w3.org/Graphics/SVG/1.1/DTD/svg11.dtd"><svg t="1521015131280" class="icon" style="" viewBox="0 0 1024 1024" version="1.1" xmlns="http://www.w3.org/2000/svg" p-id="1098" xmlns:xlink="http://www.w3.org/1999/xlink" width="200" height="200"><defs><style type="text/css"></style></defs><path d="M56.888889 170.666667l-1e-8-56.888889a56.888889 56.888889 0 0 1 56.88888901-56.88888901L910.222222 56.88888899a56.888889 56.888889 0 0 1 56.88888901 56.88888901L967.111111 853.333333a113.777778 113.777778 0 0 1-113.777778 113.777778l-682.666666 0a113.777778 113.777778 0 0 1-113.777778-113.777778l0-682.666666zM227.555556 853.333333L796.444444 853.333333a56.888889 56.888889 0 0 0 56.888889-56.888889l0-511.99999999-170.666666-1e-8a56.888889 56.888889 0 0 1-56.888889-56.888888l0-56.888889-227.555556 0 0 56.888889a56.888889 56.888889 0 0 1-56.888889 56.888888l-170.666666 1e-8L170.666667 796.444444a56.888889 56.888889 0 0 0 56.888889 56.888889z m244.224-514.048a56.888889 56.888889 0 0 1 80.440888 0L713.159111 500.224a56.888889 56.888889 0 0 1-80.497778 80.440889L568.88888901 516.892444 568.888889 739.555556a56.888889 56.888889 0 0 1-113.777778 0l-1e-8-222.663112-63.77244399 63.772445a56.888889 56.888889 0 1 1-80.440889-80.440889z" fill="#0078D7" p-id="1099"></path></svg>