<?xml version="1.0" standalone="no"?><!DOCTYPE svg PUBLIC "-//W3C//DTD SVG 1.1//EN" "http://www.w3.org/Graphics/SVG/1.1/DTD/svg11.dtd"><svg t="1527582050025" class="icon" style="" viewBox="0 0 1024 1024" version="1.1" xmlns="http://www.w3.org/2000/svg" p-id="14771" xmlns:xlink="http://www.w3.org/1999/xlink" width="200" height="200"><defs><style type="text/css"></style></defs><path d="M864 691.2h-704c-51.2 0-96 44.8-96 96v64c0 51.2 44.8 96 96 96h704c51.2 0 96-44.8 96-96v-64c0-51.2-44.8-96-96-96z m32 160c0 19.2-12.8 32-32 32h-704c-19.2 0-32-12.8-32-32v-64c0-19.2 12.8-32 32-32h704c19.2 0 32 12.8 32 32v64z" fill="" p-id="14772"></path><path d="M812.8 819.2m-44.8 0a44.8 44.8 0 1 0 89.6 0 44.8 44.8 0 1 0-89.6 0Z" fill="" p-id="14773"></path><path d="M864 384h-704C108.8 384 64 428.8 64 480v64c0 51.2 44.8 96 96 96h704c51.2 0 96-44.8 96-96v-64c0-51.2-44.8-96-96-96z m32 160c0 19.2-12.8 32-32 32h-704c-19.2 0-32-12.8-32-32v-64c0-19.2 12.8-32 32-32h704c19.2 0 32 12.8 32 32v64z" fill="" p-id="14774"></path><path d="M812.8 512m-44.8 0a44.8 44.8 0 1 0 89.6 0 44.8 44.8 0 1 0-89.6 0Z" fill="" p-id="14775"></path><path d="M864 76.8h-704c-51.2 0-96 38.4-96 96v64c0 51.2 44.8 96 96 96h704c51.2 0 96-44.8 96-96v-64c0-57.6-44.8-96-96-96z m32 160c0 19.2-12.8 32-32 32h-704c-19.2 0-32-12.8-32-32v-64c0-19.2 12.8-32 32-32h704c19.2 0 32 12.8 32 32v64z" fill="" p-id="14776"></path><path d="M812.8 204.8m-44.8 0a44.8 44.8 0 1 0 89.6 0 44.8 44.8 0 1 0-89.6 0Z" fill="" p-id="14777"></path></svg>