<?xml version="1.0" standalone="no"?><!DOCTYPE svg PUBLIC "-//W3C//DTD SVG 1.1//EN"
  "http://www.w3.org/Graphics/SVG/1.1/DTD/svg11.dtd">
<svg t="1531968454335" class="icon" style="" viewBox="0 0 1024 1024" version="1.1" xmlns="http://www.w3.org/2000/svg"
     p-id="1445"
     width="200" height="200">
  <defs>
    <style type="text/css"></style>
  </defs>
  <path
    d="M896 684.8L716.8 512 896 339.2c70.4 0 128-57.6 128-128s-57.6-128-128-128-128 57.6-128 128c0 44.8 25.6 83.2 57.6 108.8l-153.6 153.6-147.2-147.2c-12.8-12.8-32-12.8-44.8 0L339.2 467.2 185.6 320C230.4 300.8 256 256 256 204.8c0-70.4-57.6-128-128-128s-128 57.6-128 128c0 64 51.2 115.2 108.8 128L288 512l-179.2 179.2c-64 6.4-108.8 64-108.8 128 0 70.4 57.6 128 128 128s128-57.6 128-128c0-51.2-25.6-96-70.4-115.2l147.2-147.2 108.8 102.4c-32 19.2-57.6 57.6-57.6 96 0 64 51.2 115.2 115.2 115.2s115.2-51.2 115.2-115.2c0-38.4-19.2-76.8-57.6-96l108.8-102.4 153.6 153.6c-32 25.6-57.6 64-57.6 108.8 0 70.4 57.6 128 128 128s128-57.6 128-128c6.4-76.8-51.2-134.4-121.6-134.4z m0-544c38.4 0 64 32 64 64s-32 64-64 64-64-32-64-64 25.6-64 64-64z m-832 64c0-38.4 32-64 64-64 38.4 0 64 32 64 64s-32 64-64 64c-32 6.4-64-25.6-64-64z m64 678.4c-38.4 0-64-32-64-64 0-38.4 32-64 64-64 38.4 0 64 32 64 64s-25.6 64-64 64z m377.6-70.4c-25.6 0-51.2-25.6-51.2-51.2s25.6-51.2 51.2-51.2 51.2 25.6 51.2 51.2-25.6 51.2-51.2 51.2z m0-179.2L384 512l121.6-121.6L620.8 512 505.6 633.6z m390.4 249.6c-38.4 0-64-32-64-64 0-38.4 32-64 64-64s64 32 64 64-32 64-64 64z"
    fill="" p-id="1446"></path>
</svg>
