<?xml version="1.0" standalone="no"?><!DOCTYPE svg PUBLIC "-//W3C//DTD SVG 1.1//EN"
  "http://www.w3.org/Graphics/SVG/1.1/DTD/svg11.dtd">
<svg t="1530762980708" class="icon" style="" viewBox="0 0 1024 1024" version="1.1" xmlns="http://www.w3.org/2000/svg"
     p-id="1767"
     width="200" height="200">
  <defs>
    <style type="text/css"></style>
  </defs>
  <path
    d="M512.19775391 116.88769531a395.26062012 395.26062012 0 1 0 0 790.52124024 395.26062012 395.26062012 0 0 0 0-790.52124024z m156.91772461 513.0230713a27.68554688 27.68554688 0 1 1-39.20471192 39.15527343L512.34606934 551.55078125 394.83081055 669.06604004a27.68554688 27.68554688 0 0 1-39.20471192-39.15527344l117.61413575-117.61413574-117.61413575-117.56469727a27.68554688 27.68554688 0 0 1 39.20471192-39.15527343l117.56469726 117.56469726 117.56469727-117.56469726a27.73498536 27.73498536 0 0 1 39.20471191 39.15527343L551.55078125 512.29663086l117.56469727 117.61413575z"
    fill="#FE4261" p-id="1768"></path>
</svg>
