<?xml version="1.0" standalone="no"?><!DOCTYPE svg PUBLIC "-//W3C//DTD SVG 1.1//EN"
  "http://www.w3.org/Graphics/SVG/1.1/DTD/svg11.dtd">
<svg t="1533780309647" class="icon" style="" viewBox="0 0 1024 1024" version="1.1" xmlns="http://www.w3.org/2000/svg"
     p-id="1616"
     width="32" height="32">
  <defs>
    <style type="text/css"></style>
  </defs>
  <path
    d="M825.024 124.16c-43.84-43.648-101.312-65.472-158.72-65.472s-114.88 21.824-158.72 65.472a222.272 222.272 0 0 0-9.536 304.704l-375.36 374.016 23.872 23.808-0.128 0.192 128.256 127.808 45.312-45.184-106.816-106.432 148.8-148.224 104.384 107.712 46.08-44.352-105.152-108.544L546.432 471.04a224 224 0 0 0 278.592-30.592 223.296 223.296 0 0 0 0-316.288z m-45.376 271.104c-30.272 30.208-70.528 46.848-113.344 46.848s-83.072-16.64-113.344-46.848c-30.336-30.208-47.04-70.336-47.04-112.96s16.704-82.752 47.04-112.96a159.488 159.488 0 0 1 113.344-46.784 159.808 159.808 0 0 1 113.344 272.704z"
    fill="" p-id="1617"></path>
</svg>
