<?xml version="1.0" standalone="no"?><!DOCTYPE svg PUBLIC "-//W3C//DTD SVG 1.1//EN"
  "http://www.w3.org/Graphics/SVG/1.1/DTD/svg11.dtd">
<svg t="1530761551953" class="icon" style="" viewBox="0 0 1024 1024" version="1.1" xmlns="http://www.w3.org/2000/svg"
     p-id="5247"
     width="200" height="200">
  <defs>
    <style type="text/css"></style>
  </defs>
  <path d="M512 0c28.8 0 48 22.4 48 48v156.8c0 28.8-22.4 51.2-48 51.2s-48-22.4-48-48v-160C460.8 22.4 483.2 0 512 0z"
        fill="#6BADFF" p-id="5248"></path>
  <path
    d="M771.2 76.8c22.4 12.8 32 44.8 19.2 67.2l-80 137.6c-12.8 22.4-44.8 32-67.2 19.2s-32-44.8-19.2-67.2L704 92.8c16-22.4 44.8-28.8 67.2-16z"
    fill="#EDF5FF" p-id="5249"></path>
  <path
    d="M937.6 262.4c12.8 22.4 6.4 54.4-19.2 67.2l-137.6 80c-22.4 12.8-54.4 6.4-67.2-19.2s-6.4-54.4 19.2-67.2l137.6-80c22.4-12.8 54.4-6.4 67.2 19.2z"
    fill="#E1EFFF" p-id="5250"></path>
  <path d="M1014.4 502.4c0 28.8-22.4 48-48 48h-156.8c-28.8 0-48-22.4-48-48s22.4-48 48-48h156.8c25.6 0 48 19.2 48 48z"
        fill="#D6E8FF" p-id="5251"></path>
  <path
    d="M937.6 761.6c-12.8 22.4-44.8 32-67.2 19.2l-137.6-80c-22.4-12.8-32-44.8-19.2-67.2s44.8-32 67.2-19.2l137.6 80c25.6 16 32 44.8 19.2 67.2z"
    fill="#C9E1FF" p-id="5252"></path>
  <path
    d="M771.2 966.4c-22.4 12.8-54.4 6.4-67.2-19.2l-80-137.6c-12.8-22.4-6.4-54.4 19.2-67.2s54.4-6.4 67.2 19.2l80 137.6c12.8 25.6 6.4 54.4-19.2 67.2z"
    fill="#BEDBFF" p-id="5253"></path>
  <path d="M512 1024c-28.8 0-48-22.4-48-48v-156.8c0-28.8 22.4-48 48-48s48 22.4 48 48v156.8c0 25.6-22.4 48-48 48z"
        fill="#B2D4FF" p-id="5254"></path>
  <path
    d="M249.6 966.4c-22.4-12.8-32-44.8-19.2-67.2l80-137.6c12.8-22.4 44.8-32 67.2-19.2 22.4 12.8 32 44.8 19.2 67.2l-80 137.6c-12.8 25.6-41.6 35.2-67.2 19.2z"
    fill="#A6CEFF" p-id="5255"></path>
  <path
    d="M67.2 761.6c-12.8-22.4-6.4-54.4 19.2-67.2L224 614.4c22.4-12.8 54.4-6.4 67.2 19.2s6.4 54.4-19.2 67.2l-137.6 80c-25.6 12.8-54.4 6.4-67.2-19.2z"
    fill="#9BC8FF" p-id="5256"></path>
  <path d="M9.6 502.4c0-28.8 22.4-48 48-48h156.8c25.6 0 48 22.4 48 48s-22.4 48-48 48H57.6c-25.6 0-48-22.4-48-48z"
        fill="#8EC0FF" p-id="5257"></path>
  <path
    d="M67.2 262.4c12.8-22.4 44.8-32 67.2-19.2l137.6 80c22.4 12.8 32 44.8 19.2 67.2-12.8 22.4-44.8 32-67.2 19.2l-137.6-80c-25.6-16-35.2-44.8-19.2-67.2z"
    fill="#83BAFF" p-id="5258"></path>
  <path
    d="M249.6 76.8c25.6-12.8 54.4-6.4 67.2 16l80 137.6c12.8 22.4 6.4 54.4-19.2 67.2s-54.4 6.4-67.2-19.2L233.6 144c-16-25.6-6.4-54.4 16-67.2z"
    fill="#76B3FF" p-id="5259"></path>
</svg>
