<?xml version="1.0" standalone="no"?><!DOCTYPE svg PUBLIC "-//W3C//DTD SVG 1.1//EN"
  "http://www.w3.org/Graphics/SVG/1.1/DTD/svg11.dtd">
<svg t="1528094761483" class="icon" style="" viewBox="0 0 1024 1024" version="1.1" xmlns="http://www.w3.org/2000/svg"
     p-id="4234"
     width="200" height="200">
  <defs>
    <style type="text/css"></style>
  </defs>
  <path
    d="M512 0C229.216 0 0 229.216 0 512s229.216 512 512 512 512-229.216 512-512S794.784 0 512 0zM270.272 607.136c-52.544 0-95.136-42.592-95.136-95.136s42.592-95.136 95.136-95.136 95.136 42.592 95.136 95.136S322.816 607.136 270.272 607.136zM512 607.136c-52.544 0-95.136-42.592-95.136-95.136s42.592-95.136 95.136-95.136 95.136 42.592 95.136 95.136S564.544 607.136 512 607.136zM753.728 607.136c-52.544 0-95.136-42.592-95.136-95.136s42.592-95.136 95.136-95.136 95.136 42.592 95.136 95.136S806.272 607.136 753.728 607.136z"
    fill="#3498db" p-id="4235"></path>
</svg>
