<?xml version="1.0" standalone="no"?><!DOCTYPE svg PUBLIC "-//W3C//DTD SVG 1.1//EN"
  "http://www.w3.org/Graphics/SVG/1.1/DTD/svg11.dtd">
<svg t="1521015787100" class="icon" style="" viewBox="0 0 1024 1024" version="1.1" xmlns="http://www.w3.org/2000/svg"
     p-id="1090"
     width="200" height="200">
  <defs>
    <style type="text/css"></style>
  </defs>
  <path
    d="M782.97424999 455.74775001L782.97424999 336.141125c0-38.802375-31.8915-70.369875-71.091-70.36987501l-1.63237499 0-35.56462501-72.11474999c-8.379-16.986375-27.216-28.3995-46.87312499-28.3995-4.516875 0-8.964 0.603-13.21875 1.791L281.902625 260.09c-3.704625 1.036125-7.018875 2.98574999-9.684 5.68125001l-2.89125-2e-8c-39.1995 0-71.091 31.5675-71.091 70.36987501l0 452.871c0 38.802375 31.8915 70.371 71.091 70.371l442.557 0c39.1995 0 71.091-31.568625 71.091-70.371L782.975375 669.404375c55.321875-5.844375 98.137125-52.08975001 98.137125-106.82775C881.111375 507.836375 838.29725001 461.591 782.97424999 455.74775001zM423.265625 265.77125001l203.22675-56.835c0.374625-0.104625 0.80774999-0.1575 1.28925-0.1575 3.106125 0 6.575625 2.151 7.488 3.99937499l26.13375 52.992L423.265625 265.770125zM242.115875 336.141125c0-14.806125 12.207375-26.8515 27.2115-26.8515l442.557 0c15.004125 0 27.2115 12.045375 27.2115 26.8515l0 118.974375-90.94162499 0c-60.67125001 0-110.030625 48.20625001-110.03062501 107.46 0 59.25374999 49.359375 107.46 110.03062501 107.46l90.94162499 0 0 118.976625c0 14.806125-12.207375 26.852625-27.2115 26.85262499L269.327375 815.86475001c-15.004125 0-27.2115-12.0465-27.2115-26.85262501L242.115875 336.141125zM837.233 562.5755c0 35.2575-29.67524999 63.941625-66.151125 63.941625L648.15424999 626.517125c-36.475875 0-66.151125-28.684125-66.15112499-63.941625 0-35.2575 29.67524999-63.941625 66.15112499-63.941625l122.92762501 0C807.55775001 498.633875 837.233 527.318 837.233 562.5755zM658.4075 512.9585c-27.91124999 0-50.619375 22.47974999-50.619375 50.112 0 27.631125 22.708125 50.110875 50.619375 50.110875s50.619375-22.47974999 50.619375-50.110875C709.026875 535.43825001 686.31875001 512.9585 658.4075 512.9585zM665.147375 563.0705c0 3.4425-3.024 6.242625-6.739875 6.242625s-6.739875-2.800125-6.739875-6.242625c0-3.4425 3.024-6.24375001 6.739875-6.24375001S665.147375 559.628 665.147375 563.0705z"
    fill="#1296db" p-id="1091"></path>
</svg>
