<?xml version="1.0" standalone="no"?><!DOCTYPE svg PUBLIC "-//W3C//DTD SVG 1.1//EN"
  "http://www.w3.org/Graphics/SVG/1.1/DTD/svg11.dtd">
<svg t="1521015805349" class="icon" style="" viewBox="0 0 1024 1024" version="1.1" xmlns="http://www.w3.org/2000/svg"
     p-id="1213"
     width="200" height="200">
  <defs>
    <style type="text/css"></style>
  </defs>
  <path
    d="M877.56217321 208.06924057l-171.7909813 606.44788743c-1.62220001 6.60467148-6.00214004 11.58714294-11.56396866 14.53027725-0.71840286 1.32093429-1.1587143 2.73456574-2.17838286 3.91645431-8.15734864 9.59415436-22.54858017 10.72969436-32.16590882 2.54917145l-185.18571854-157.84006119c-9.59415436-8.15734864-10.72969436-22.57175446-2.57234573-32.14273453 2.87361145-3.38344574 6.58149719-5.44595718 10.5211258-6.65102005 1.32093429-2.71139145 3.08218002-5.67770004 5.86309431-9.29288864l151.02682114-197.60713578-181.66322707 167.5269127c-5.46913147 3.84693146-10.35890579 5.86309433-14.78519441 6.3961029-0.02317429 0.09269714 0.02317429 0.16222 0 0.23174286l-49.03678893 187.31775284c-2.54917146 9.71002579-14.48392868 14.97058868-26.67360306 11.77253723s-19.99940872-13.6264801-17.47341156-23.33650588l45.97778321-175.66108704-219.83127595 0c-12.60681153 0-22.80349732-10.21986007-22.80349731-22.80349731l0 0c-5.65452576-11.03096008 0.67205429-26.02472305 15.82803725-35.45665742l669.41242219-361.93599701c0.97332001-0.30126572 1.76124573-0.44031143 2.71139145-0.71840286 5.37643432-4.4262886 12.42141724-6.62784576 19.69814301-4.84342575 2.03933716 0.5098343 3.70788575 1.59902572 5.46913146 2.57234573 4.00915147 1.1587143 7.46212006 3.1285286 9.66367722 7.16085434 1.92346572 3.54566574 2.24790574 7.5548172 1.83076859 11.6566658 0.06952285 2.06251145 0.25491714 4.10184861-0.25491715 6.21070862zM808.15518697 285.81896972l-0.27809143 0.37078858 0.25491714-0.25491714 0.02317429-0.11587143z"
    fill="#1296db" p-id="1214"></path>
</svg>
