<?xml version="1.0" standalone="no"?><!DOCTYPE svg PUBLIC "-//W3C//DTD SVG 1.1//EN"
  "http://www.w3.org/Graphics/SVG/1.1/DTD/svg11.dtd">
<svg t="1528283926941" class="icon" style="" viewBox="0 0 1024 1024" version="1.1" xmlns="http://www.w3.org/2000/svg"
     p-id="1708"
     width="200" height="200">
  <defs>
    <style type="text/css"></style>
  </defs>
  <path
    d="M755.904 312.448L517.504 224.512a16.064 16.064 0 0 0-10.944 0L268.096 312.448a17.088 17.088 0 0 0-10.88 16v254.976c0 38.4 13.696 75.968 40.832 111.424 20.8 27.392 49.664 53.632 85.824 78.08a615.936 615.936 0 0 0 122.752 63.744 17.408 17.408 0 0 0 5.44 1.024 17.408 17.408 0 0 0 5.376-1.024c6.336-2.304 64-23.872 122.688-63.616 36.096-24.576 65.024-50.816 85.824-78.208 27.008-35.52 40.768-73.088 40.768-111.424V328.384a16.96 16.96 0 0 0-10.816-15.936z m-133.248 431.936a612.8 612.8 0 0 1-110.592 58.368 613.12 613.12 0 0 1-110.656-58.304c-50.816-34.56-111.36-90.496-111.36-161.024V340.416l222.016-81.92 221.952 81.92v244.736c-1.088 69.696-61.184 125.056-111.36 159.232z"
    fill="#1296db" p-id="1709"></path>
  <path
    d="M696.256 439.36a18.368 18.368 0 0 0-17.984 5.696L505.088 633.28 406.08 526.144a18.624 18.624 0 0 0-18.24-6.08 18.944 18.944 0 0 0-13.952 13.696 19.776 19.776 0 0 0 4.864 19.008l112.704 121.92a18.816 18.816 0 0 0 13.568 6.016 18.56 18.56 0 0 0 13.568-6.016l186.816-203.008a19.84 19.84 0 0 0 4.608-18.88 19.008 19.008 0 0 0-13.76-13.44z"
    fill="#1296db" p-id="1710"></path>
  <path
    d="M508.736 0C228.16 0 0 229.696 0 512s228.16 512 508.736 512c280.448 0 508.672-229.696 508.672-512s-228.224-512-508.672-512z m0 970.112C257.728 970.112 53.568 764.544 53.568 512c0-252.608 204.16-458.112 455.168-458.112 250.88 0 455.104 205.44 455.104 458.112 0 252.544-204.224 458.112-455.104 458.112z"
    fill="#1296db" p-id="1711"></path>
</svg>
