<?xml version="1.0" standalone="no"?><!DOCTYPE svg PUBLIC "-//W3C//DTD SVG 1.1//EN"
  "http://www.w3.org/Graphics/SVG/1.1/DTD/svg11.dtd">
<svg t="1534236343624" class="icon" style="" viewBox="0 0 1024 1024" version="1.1" xmlns="http://www.w3.org/2000/svg"
     p-id="1695"
     width="200" height="200">
  <defs>
    <style type="text/css"></style>
  </defs>
  <path
    d="M601 795.5c-7.8 0-15.2-4.8-18-12.6-3.6-10 1.5-21 11.4-24.6C694.7 721.5 762.1 625 762.1 518.1c0-141-114.7-255.7-255.7-255.7-10.6 0-19.2-8.6-19.2-19.2s8.6-19.2 19.2-19.2c162.1 0 294 131.9 294 294.1 0 122.9-77.5 233.9-192.9 276.2-2.1 0.8-4.4 1.2-6.5 1.2z"
    p-id="1696"></path>
  <path
    d="M505.6 262.8c-6.1 0-12.1-2.9-15.9-8.3-6-8.8-3.7-20.7 5-26.7l86-58.8c8.8-6 20.7-3.7 26.7 5 6 8.8 3.7 20.7-5 26.7l-85.9 58.8c-3.4 2.2-7.2 3.3-10.9 3.3z"
    p-id="1697"></path>
  <path
    d="M510 798.3c-162.1 0-294-131.9-294-294.1 0-122.9 77.5-233.9 192.9-276.2 9.9-3.6 21 1.5 24.6 11.4 3.6 10-1.5 21-11.4 24.6-100.3 36.7-167.7 133.3-167.7 240.1 0 141 114.7 255.7 255.7 255.7 10.6 0 19.2 8.6 19.2 19.2-0.1 10.7-8.7 19.3-19.3 19.3z"
    p-id="1698"></path>
  <path
    d="M426.8 856.4c-6.1 0-12.1-2.9-15.9-8.4-6-8.7-3.7-20.7 5-26.7l86-58.8c8.8-6 20.7-3.7 26.7 5s3.7 20.7-5 26.7l-86 58.8c-3.3 2.4-7.1 3.4-10.8 3.4z"
    p-id="1699"></path>
  <path
    d="M490.4 633s-5.1-1.1-15.1-3.2c-10.1-2.2-19.5-5.4-28.3-9.7-8.8-4.3-16.9-9.7-24.6-16.1l20.4-25.1c8.9 7.7 18.7 13.5 29.5 17.4 10.7 3.9 22.4 5.8 35 5.8 17 0 30.1-3.1 39.5-9.4 9.3-6.3 14-15.2 14-26.7v-0.2c0-8.2-2.1-14.6-6.4-19.4-4.2-4.8-9.7-8.3-16.4-10.6-6.7-2.3-15.4-4.4-26-6.4-0.3-0.1-0.7-0.2-1-0.2s-0.7 0-1-0.2l-2.4-0.5c-15.7-2.7-28.4-5.7-38.3-9.1-9.8-3.4-18.2-9.5-25.2-18.5s-10.5-21.7-10.5-38.3v-0.2c0-14.5 3.2-26.9 9.7-37.1s16-18.1 28.4-23.4c12.4-5.4 27.4-8 44.9-8 8.4 0 16.6 0.9 24.7 2.7 8.1 1.8 16.1 4.5 24 8.1 7.9 3.6 15.6 8.1 23.3 13.6L570 444.6c-8.9-6.5-17.8-11.5-26.7-14.7-8.9-3.3-17.7-4.9-26.7-4.9-16 0-28.4 3.2-37.3 9.6-8.9 6.4-13.3 15.4-13.3 27.1v0.2c0 8.1 2.3 14.4 6.8 19 4.6 4.6 10.3 8 17.1 10.2 6.8 2.2 16.3 4.5 28.4 6.8 0.4 0.1 0.8 0.2 1.2 0.2 0.4 0.1 0.8 0.1 1.2 0.2 0.5 0.1 1.1 0.2 1.8 0.3l1.8 0.3c14.2 2.9 26 6.3 35.5 10.3 9.5 4 17.4 10.4 23.8 19.2 6.4 8.9 9.6 21 9.6 36.3v0.3c0 14.3-3.4 26.5-10.1 36.6s-16.6 17.9-29.4 23.2c-12.8 5.3-28.3 8-46.5 8-11.1 0.2-16.8 0.2-16.8 0.2z"
    p-id="1700"></path>
  <path
    d="M523 702.9c-10.6 0-19-8.6-19-19.2v-57.6c0-10.6 8.4-19.2 19-19.2s19 8.6 19 19.2v57.6c0 10.6-8.4 19.2-19 19.2zM523 415c-10.6 0-19-8.6-19-19.2v-57.6c0-10.6 8.4-19.2 19-19.2s19 8.6 19 19.2v57.6c0 10.6-8.4 19.2-19 19.2z"
    p-id="1701"></path>
</svg>
