<?xml version="1.0" standalone="no"?><!DOCTYPE svg PUBLIC "-//W3C//DTD SVG 1.1//EN"
  "http://www.w3.org/Graphics/SVG/1.1/DTD/svg11.dtd">
<svg t="1528799615084" class="icon" style="" viewBox="0 0 1024 1024" version="1.1" xmlns="http://www.w3.org/2000/svg"
     p-id="1551"
     width="200" height="200">
  <defs>
    <style type="text/css"></style>
  </defs>
  <path
    d="M512 32A479.872 479.872 0 0 0 32 512c0 265.152 214.848 480 480 480s480-214.848 480-480c0-265.216-214.848-480-480-480zM431.296 689.728a48.64 48.64 0 0 1-48.128 49.28 48.64 48.64 0 0 1-47.872-49.28l-0.128-355.328a48.768 48.768 0 0 1 48.128-49.344 48.64 48.64 0 0 1 48 49.28v355.392z m209.472 49.28a48.768 48.768 0 0 1-48-49.28V334.4c0-27.392 21.632-49.344 48.128-49.344a48.64 48.64 0 0 1 47.872 49.28l0.128 355.392a48.832 48.832 0 0 1-48.128 49.28z"
    fill="#f2c019" p-id="1552"></path>
</svg>
