<?xml version="1.0" standalone="no"?><!DOCTYPE svg PUBLIC "-//W3C//DTD SVG 1.1//EN"
  "http://www.w3.org/Graphics/SVG/1.1/DTD/svg11.dtd">
<svg t="1521015198308" class="icon" style="" viewBox="0 0 1024 1024" version="1.1" xmlns="http://www.w3.org/2000/svg"
     p-id="1321"
     width="200" height="200">
  <defs>
    <style type="text/css"></style>
  </defs>
  <path
    d="M967.111111 853.333333v56.888889a56.888889 56.888889 0 0 1-56.888889 56.888889H113.777778a56.888889 56.888889 0 0 1-56.888889-56.888889V170.666667a113.777778 113.777778 0 0 1 113.777778-113.777778h682.666666a113.777778 113.777778 0 0 1 113.777778 113.777778v682.666666zM796.444444 170.666667H227.555556a56.888889 56.888889 0 0 0-56.888889 56.888889v512h170.666666a56.888889 56.888889 0 0 1 56.888889 56.888888v56.888889h227.555556v-56.888889a56.888889 56.888889 0 0 1 56.888889-56.888888h170.666666V227.555556a56.888889 56.888889 0 0 0-56.888889-56.888889z m-244.224 514.048a56.888889 56.888889 0 0 1-80.440888 0L310.840889 523.776a56.888889 56.888889 0 0 1 80.497778-80.440889L455.111111 507.107556V284.444444a56.888889 56.888889 0 0 1 113.777778 0v222.663112l63.772444-63.772445a56.888889 56.888889 0 1 1 80.440889 80.440889z"
    fill="#0078D7" p-id="1322"></path>
</svg>
