<?xml version="1.0" standalone="no"?><!DOCTYPE svg PUBLIC "-//W3C//DTD SVG 1.1//EN"
  "http://www.w3.org/Graphics/SVG/1.1/DTD/svg11.dtd">
<svg t="1533103577369" class="icon" style="" viewBox="0 0 1024 1024" version="1.1" xmlns="http://www.w3.org/2000/svg"
     p-id="1558"
     width="200" height="200">
  <defs>
    <style type="text/css"></style>
  </defs>
  <path
    d="M467.05836289 497.11504151a63.64133262 63.64133262 0 0 0 65.13877529 8.98465869 32.94374854 32.94374854 0 0 0 11.23082315-5.98977247l393.82753974-350.40168984A45.67201523 45.67201523 0 0 0 960.46586914 111.52343867a45.67201523 45.67201523 0 0 0-17.2205956-34.44119121 62.14388906 62.14388906 0 0 0-79.36448468 0L511.23293457 394.54018789 158.58508115 77.08224746A62.14388906 62.14388906 0 0 0 79.2205956 75.58480391a42.67712901 42.67712901 0 0 0 0 67.38494062z"
    fill="" p-id="1559"></path>
  <path
    d="M863.88078887 527.81262471L511.23293457 843.77312246 158.58508115 526.31518203a62.14388906 62.14388906 0 0 0-79.36448555 0 42.67712901 42.67712901 0 0 0 0 67.38493975l390.08393174 354.14529697a63.64133262 63.64133262 0 0 0 65.13877529 8.98465869 32.94374854 32.94374854 0 0 0 11.23082403-5.98977246l393.82753886-350.40168896a45.67201523 45.67201523 0 0 0 20.96420362-39.68224277 45.67201523 45.67201523 0 0 0-17.2205956-34.44119122 62.14388906 62.14388906 0 0 0-79.36448468 1.49744268z"
    fill="" p-id="1560"></path>
</svg>
