<?xml version="1.0" standalone="no"?><!DOCTYPE svg PUBLIC "-//W3C//DTD SVG 1.1//EN"
  "http://www.w3.org/Graphics/SVG/1.1/DTD/svg11.dtd">
<svg t="1528283911144" class="icon" style="" viewBox="0 0 1024 1024" version="1.1" xmlns="http://www.w3.org/2000/svg"
     p-id="1223"
     width="200" height="200">
  <defs>
    <style type="text/css"></style>
  </defs>
  <path
    d="M856.369 832.373l-31.707 38.66-59.119-48.484c-27.479 28.609-66.115 46.418-108.912 46.418-83.395 0-151-67.604-151-151 0-83.395 67.605-151.001 151-151.001 83.396 0 151 67.606 151 151.001 0 22.535-4.945 43.914-13.795 63.121l62.533 51.285zM656.631 616.967c-55.781 0-101 45.219-101 101 0 55.779 45.219 101 101 101 55.779 0 101-45.221 101-101 0-55.781-45.221-101-101-101zM445.539 732.393c0 36.021 8.436 70.072 23.426 100.313H167.631V152.967h529.791v354.206a229.691 229.691 0 0 0-24.838-1.355c-125.395-0.001-227.045 101.44-227.045 226.575z m-165.544-165.21h120.604v-37.767H279.995v37.767z m302.73-264.323h-302.73v37.732h302.729V302.86h0.001z m0 113.262h-302.73v37.798h302.729v-37.798h0.001z"
    fill="#ff9e19" p-id="1224"></path>
</svg>
