<?xml version="1.0" standalone="no"?><!DOCTYPE svg PUBLIC "-//W3C//DTD SVG 1.1//EN"
  "http://www.w3.org/Graphics/SVG/1.1/DTD/svg11.dtd">
<svg t="1521015811937" class="icon" style="" viewBox="0 0 1024 1024" version="1.1" xmlns="http://www.w3.org/2000/svg"
     p-id="1341"
     width="200" height="200">
  <defs>
    <style type="text/css"></style>
  </defs>
  <path
    d="M944.90770832 428.94125l-41.0990625 41.1075L789.29489582 355.5434375l41.1075-41.1075c12.9515625-12.9515625 32.4253125-14.5546875 43.4109375-3.5775l74.671875 74.6803125C959.46239582 396.5159375 957.85927082 415.9896875 944.90770832 428.94125zM770.20927082 374.620625L884.72302082 489.134375 611.66020832 762.1971875c-1.2571875 1.2571875-4.7334375 4.725-9.6103125 5.97375-0.5653125 0.27-1.1390625 0.4978125-1.7128125 0.6834375l-142.509375 45.410625c-3.9909375 1.265625-7.99875 0.455625-10.5975-2.1515625-2.6071875-2.6071875-3.4171875-6.615-2.1684375-10.5975l45.4190625-142.4925c0.1940625-0.590625 0.421875-1.164375 0.6834375-1.7128125 1.24875-4.8853125 4.7165625-8.353125 5.9821875-9.6103125L548.46333332 596.375 375.14020832 596.375c-6.98625 0-12.65625-5.6615625-12.65625-12.65625s5.67-12.65625 12.65625-12.65625l198.635625 0L770.20927082 374.620625zM576.43364582 753.396875l-70.4953125-70.486875-18.9084375 59.36625 30.0459375 30.0459375L576.43364582 753.396875zM765.80489582 420.1325c-4.05-4.0584375-10.6228125-4.0584375-14.6728125 0L538.25395832 633.0021875c-4.05 4.05-4.05 10.6228125 0 14.68125 4.05 4.05 10.63125 4.05 14.68125 0l212.8696875-212.8696875C769.86333332 430.7553125 769.86333332 424.1825 765.80489582 420.1325zM752.94614582 825.385625c0 7.610625-6.1846875 13.80375-13.7953125 13.80375l-251.184375 0-22.6884375 7.2309375c-4.55625 1.45125-9.2390625 2.1853125-13.9303125 2.1853125-9.9815625 0-19.2628125-3.425625-26.8565625-9.41625L294.09802082 839.189375c-7.610625 0-13.8121875-6.1846875-13.8121875-13.80375L280.28583332 245.763125c0-7.610625 6.193125-13.80375 13.8121875-13.80375l51.7471875 0 0 21.853125c0 7.6190625 6.17625 13.7953125 13.80375 13.7953125s13.80375-6.17625 13.80375-13.7953125l0-21.853125 79.34625 0 0 21.853125c0 7.6190625 6.17625 13.7953125 13.80375 13.7953125s13.80375-6.17625 13.80375-13.7953125l0-21.853125 69.001875 0 0 21.853125c0 7.6190625 6.17625 13.7953125 13.80375 13.7953125s13.80375-6.17625 13.80375-13.7953125l0-21.853125 75.90375 0 0 21.853125c0 7.6190625 6.17625 13.7953125 13.7953125 13.7953125 7.6275 0 13.8121875-6.17625 13.8121875-13.7953125l0-21.853125 58.6490625 0c7.6021875 0 13.7953125 6.193125 13.7953125 13.80375l0 95.5884375 14.461875-14.461875 26.9409375-26.9409375 0-54.185625c0-30.4340625-24.7640625-55.198125-55.198125-55.198125l-58.6490625 0L680.52708332 157.2115625c0-7.6190625-6.17625-13.80375-13.8121875-13.80375-7.610625 0-13.7953125 6.17625-13.7953125 13.80375l0 33.3534375L576.99895832 190.565 576.99895832 157.2115625c0-7.6190625-6.17625-13.80375-13.80375-13.80375s-13.80375 6.17625-13.80375 13.80375l0 33.3534375-69.001875 0L480.38958332 157.2115625c0-7.6190625-6.17625-13.80375-13.80375-13.80375s-13.80375 6.17625-13.80375 13.80375l0 33.3534375-79.34625 0L373.43583332 157.2115625c0-7.6190625-6.17625-13.80375-13.80375-13.80375s-13.80375 6.17625-13.80375 13.80375l0 33.3534375-51.7471875 0c-30.4340625 0-55.2065625 24.7640625-55.2065625 55.198125l0 579.6140625c0 30.4340625 24.7725 55.198125 55.2065625 55.198125l445.06125 0c30.4340625 0 55.198125-24.7640625 55.198125-55.198125L794.34052082 624.4296875l-41.4028125 41.41125L752.93770832 825.385625zM645.14020832 355.90625l-270 0c-6.98625 0-12.65625 5.6615625-12.65625 12.65625s5.67 12.65625 12.65625 12.65625l270 0c6.98625 0 12.65625-5.6615625 12.65625-12.65625S652.12645832 355.90625 645.14020832 355.90625zM645.14020832 457.949375l-270 0c-6.98625 0-12.65625 5.6615625-12.65625 12.65625s5.67 12.65625 12.65625 12.65625l270 0c6.98625 0 12.65625-5.6615625 12.65625-12.65625S652.12645832 457.949375 645.14020832 457.949375z"
    fill="#1afa29" p-id="1342"></path>
</svg>
